<mxfile host="app.diagrams.net" agent="Mozilla/5.0 (Windows NT 10.0; Win64; x64; rv:129.0) Gecko/20100101 Firefox/129.0" version="24.7.7">
  <diagram name="Page-1" id="cHMctXzzn7q3N3SrIJxy">
    <mxGraphModel dx="1434" dy="782" grid="1" gridSize="10" guides="1" tooltips="1" connect="1" arrows="1" fold="1" page="1" pageScale="1" pageWidth="1654" pageHeight="1169" math="0" shadow="0">
      <root>
        <mxCell id="0" />
        <mxCell id="1" parent="0" />
        <mxCell id="TfQCIEfQzdd_NM2B3Fw8-5" value="ISA" style="strokeWidth=2;html=1;shape=mxgraph.flowchart.merge_or_storage;whiteSpace=wrap;fontSize=16;" parent="1" vertex="1">
          <mxGeometry x="1190" y="545" width="60" height="40" as="geometry" />
        </mxCell>
        <mxCell id="TfQCIEfQzdd_NM2B3Fw8-8" value="Subject" style="rounded=0;whiteSpace=wrap;html=1;fontSize=16;" parent="1" vertex="1">
          <mxGeometry x="600" y="120" width="140" height="70" as="geometry" />
        </mxCell>
        <mxCell id="TfQCIEfQzdd_NM2B3Fw8-10" value="&lt;font style=&quot;font-size: 16px;&quot;&gt;&lt;u style=&quot;font-size: 16px;&quot;&gt;subjectID&lt;/u&gt;&lt;/font&gt;" style="ellipse;whiteSpace=wrap;html=1;fontSize=16;" parent="1" vertex="1">
          <mxGeometry x="510" y="20" width="120" height="60" as="geometry" />
        </mxCell>
        <mxCell id="TfQCIEfQzdd_NM2B3Fw8-12" value="subject_text" style="ellipse;whiteSpace=wrap;html=1;fontSize=16;" parent="1" vertex="1">
          <mxGeometry x="700" y="20" width="120" height="60" as="geometry" />
        </mxCell>
        <mxCell id="TfQCIEfQzdd_NM2B3Fw8-17" value="&lt;u&gt;answerID&lt;/u&gt;" style="ellipse;whiteSpace=wrap;html=1;fontSize=16;" parent="1" vertex="1">
          <mxGeometry x="320" y="440" width="120" height="60" as="geometry" />
        </mxCell>
        <mxCell id="TfQCIEfQzdd_NM2B3Fw8-19" value="answer_text" style="ellipse;whiteSpace=wrap;html=1;fontSize=16;" parent="1" vertex="1">
          <mxGeometry x="320" y="515" width="120" height="60" as="geometry" />
        </mxCell>
        <mxCell id="TfQCIEfQzdd_NM2B3Fw8-20" value="" style="endArrow=none;html=1;rounded=0;entryX=1;entryY=0.5;entryDx=0;entryDy=0;exitX=0;exitY=0.25;exitDx=0;exitDy=0;" parent="1" source="TfQCIEfQzdd_NM2B3Fw8-89" target="TfQCIEfQzdd_NM2B3Fw8-17" edge="1">
          <mxGeometry width="50" height="50" relative="1" as="geometry">
            <mxPoint x="530" y="527.5" as="sourcePoint" />
            <mxPoint x="760" y="380" as="targetPoint" />
            <Array as="points">
              <mxPoint x="490" y="528" />
              <mxPoint x="490" y="470" />
            </Array>
          </mxGeometry>
        </mxCell>
        <mxCell id="TfQCIEfQzdd_NM2B3Fw8-27" value="" style="endArrow=none;html=1;rounded=0;entryX=0.5;entryY=1;entryDx=0;entryDy=0;exitX=0.5;exitY=0;exitDx=0;exitDy=0;exitPerimeter=0;" parent="1" source="TfQCIEfQzdd_NM2B3Fw8-5" target="TfQCIEfQzdd_NM2B3Fw8-90" edge="1">
          <mxGeometry width="50" height="50" relative="1" as="geometry">
            <mxPoint x="710" y="430" as="sourcePoint" />
            <mxPoint x="1220" y="360" as="targetPoint" />
          </mxGeometry>
        </mxCell>
        <mxCell id="TfQCIEfQzdd_NM2B3Fw8-28" value="" style="endArrow=none;html=1;rounded=0;exitX=1;exitY=0.5;exitDx=0;exitDy=0;entryX=0.187;entryY=0.48;entryDx=0;entryDy=0;entryPerimeter=0;" parent="1" source="TfQCIEfQzdd_NM2B3Fw8-92" target="TfQCIEfQzdd_NM2B3Fw8-5" edge="1">
          <mxGeometry width="50" height="50" relative="1" as="geometry">
            <mxPoint x="1060" y="405" as="sourcePoint" />
            <mxPoint x="1160" y="580" as="targetPoint" />
            <Array as="points">
              <mxPoint x="1120" y="405" />
              <mxPoint x="1120" y="565" />
            </Array>
          </mxGeometry>
        </mxCell>
        <mxCell id="TfQCIEfQzdd_NM2B3Fw8-29" value="" style="endArrow=none;html=1;rounded=0;exitX=1;exitY=0.5;exitDx=0;exitDy=0;entryX=0.833;entryY=0.45;entryDx=0;entryDy=0;entryPerimeter=0;" parent="1" source="TfQCIEfQzdd_NM2B3Fw8-93" target="TfQCIEfQzdd_NM2B3Fw8-5" edge="1">
          <mxGeometry width="50" height="50" relative="1" as="geometry">
            <mxPoint x="1060" y="743.97" as="sourcePoint" />
            <mxPoint x="1280" y="610" as="targetPoint" />
            <Array as="points">
              <mxPoint x="1240" y="744" />
            </Array>
          </mxGeometry>
        </mxCell>
        <mxCell id="TfQCIEfQzdd_NM2B3Fw8-30" value="&lt;u&gt;questionID&lt;/u&gt;" style="ellipse;whiteSpace=wrap;html=1;fontSize=16;" parent="1" vertex="1">
          <mxGeometry x="1430" y="220" width="120" height="60" as="geometry" />
        </mxCell>
        <mxCell id="TfQCIEfQzdd_NM2B3Fw8-32" value="question_text" style="ellipse;whiteSpace=wrap;html=1;fontSize=16;" parent="1" vertex="1">
          <mxGeometry x="1430" y="295" width="120" height="60" as="geometry" />
        </mxCell>
        <mxCell id="TfQCIEfQzdd_NM2B3Fw8-33" value="difficulty" style="ellipse;whiteSpace=wrap;html=1;fontSize=16;" parent="1" vertex="1">
          <mxGeometry x="1430" y="375" width="120" height="60" as="geometry" />
        </mxCell>
        <mxCell id="TfQCIEfQzdd_NM2B3Fw8-34" value="" style="endArrow=none;html=1;rounded=0;entryX=0;entryY=0.5;entryDx=0;entryDy=0;exitX=1;exitY=0.75;exitDx=0;exitDy=0;" parent="1" source="TfQCIEfQzdd_NM2B3Fw8-90" target="TfQCIEfQzdd_NM2B3Fw8-33" edge="1">
          <mxGeometry width="50" height="50" relative="1" as="geometry">
            <mxPoint x="1290" y="342.5" as="sourcePoint" />
            <mxPoint x="1040" y="310" as="targetPoint" />
            <Array as="points">
              <mxPoint x="1360" y="343" />
              <mxPoint x="1360" y="405" />
            </Array>
          </mxGeometry>
        </mxCell>
        <mxCell id="TfQCIEfQzdd_NM2B3Fw8-35" value="" style="endArrow=none;html=1;rounded=0;entryX=0;entryY=0.5;entryDx=0;entryDy=0;exitX=1;exitY=0.5;exitDx=0;exitDy=0;" parent="1" source="TfQCIEfQzdd_NM2B3Fw8-90" target="TfQCIEfQzdd_NM2B3Fw8-32" edge="1">
          <mxGeometry width="50" height="50" relative="1" as="geometry">
            <mxPoint x="1290" y="325" as="sourcePoint" />
            <mxPoint x="1040" y="310" as="targetPoint" />
          </mxGeometry>
        </mxCell>
        <mxCell id="TfQCIEfQzdd_NM2B3Fw8-37" value="" style="endArrow=none;html=1;rounded=0;entryX=0;entryY=0.5;entryDx=0;entryDy=0;exitX=1;exitY=0.25;exitDx=0;exitDy=0;" parent="1" source="TfQCIEfQzdd_NM2B3Fw8-90" target="TfQCIEfQzdd_NM2B3Fw8-30" edge="1">
          <mxGeometry width="50" height="50" relative="1" as="geometry">
            <mxPoint x="1290" y="307.5" as="sourcePoint" />
            <mxPoint x="1380" y="280" as="targetPoint" />
            <Array as="points">
              <mxPoint x="1360" y="308" />
              <mxPoint x="1360" y="250" />
            </Array>
          </mxGeometry>
        </mxCell>
        <mxCell id="TfQCIEfQzdd_NM2B3Fw8-41" value="Contains" style="rhombus;whiteSpace=wrap;html=1;fontSize=16;" parent="1" vertex="1">
          <mxGeometry x="750" y="460" width="100" height="50" as="geometry" />
        </mxCell>
        <mxCell id="TfQCIEfQzdd_NM2B3Fw8-42" value="" style="endArrow=none;html=1;rounded=0;exitX=0;exitY=0.5;exitDx=0;exitDy=0;entryX=0.5;entryY=0;entryDx=0;entryDy=0;" parent="1" source="TfQCIEfQzdd_NM2B3Fw8-92" target="TfQCIEfQzdd_NM2B3Fw8-41" edge="1">
          <mxGeometry width="50" height="50" relative="1" as="geometry">
            <mxPoint x="920" y="405" as="sourcePoint" />
            <mxPoint x="860" y="460" as="targetPoint" />
            <Array as="points">
              <mxPoint x="800" y="405" />
            </Array>
          </mxGeometry>
        </mxCell>
        <mxCell id="TfQCIEfQzdd_NM2B3Fw8-43" value="" style="endArrow=none;html=1;rounded=0;entryX=0.5;entryY=1;entryDx=0;entryDy=0;exitX=1;exitY=0.5;exitDx=0;exitDy=0;" parent="1" source="TfQCIEfQzdd_NM2B3Fw8-89" target="TfQCIEfQzdd_NM2B3Fw8-41" edge="1">
          <mxGeometry width="50" height="50" relative="1" as="geometry">
            <mxPoint x="670" y="545" as="sourcePoint" />
            <mxPoint x="1000" y="430" as="targetPoint" />
            <Array as="points">
              <mxPoint x="800" y="545" />
            </Array>
          </mxGeometry>
        </mxCell>
        <mxCell id="TfQCIEfQzdd_NM2B3Fw8-44" value="&lt;font style=&quot;font-size: 14px;&quot;&gt;n&lt;/font&gt;" style="text;html=1;align=center;verticalAlign=middle;resizable=0;points=[];autosize=1;strokeColor=none;fillColor=none;" parent="1" vertex="1">
          <mxGeometry x="890" y="375" width="30" height="30" as="geometry" />
        </mxCell>
        <mxCell id="TfQCIEfQzdd_NM2B3Fw8-45" value="&lt;font style=&quot;font-size: 14px;&quot;&gt;m&lt;/font&gt;" style="text;html=1;align=center;verticalAlign=middle;resizable=0;points=[];autosize=1;strokeColor=none;fillColor=none;" parent="1" vertex="1">
          <mxGeometry x="670" y="515" width="30" height="30" as="geometry" />
        </mxCell>
        <mxCell id="TfQCIEfQzdd_NM2B3Fw8-47" value="" style="endArrow=none;html=1;rounded=0;exitX=0.5;exitY=0;exitDx=0;exitDy=0;entryX=0.5;entryY=1;entryDx=0;entryDy=0;" parent="1" source="TfQCIEfQzdd_NM2B3Fw8-101" target="TfQCIEfQzdd_NM2B3Fw8-89" edge="1">
          <mxGeometry width="50" height="50" relative="1" as="geometry">
            <mxPoint x="600" y="650" as="sourcePoint" />
            <mxPoint x="600" y="580" as="targetPoint" />
          </mxGeometry>
        </mxCell>
        <mxCell id="TfQCIEfQzdd_NM2B3Fw8-51" value="" style="endArrow=none;html=1;rounded=0;entryX=0.5;entryY=0;entryDx=0;entryDy=0;exitX=0.5;exitY=1;exitDx=0;exitDy=0;" parent="1" source="TfQCIEfQzdd_NM2B3Fw8-8" target="TfQCIEfQzdd_NM2B3Fw8-99" edge="1">
          <mxGeometry width="50" height="50" relative="1" as="geometry">
            <mxPoint x="720" y="470" as="sourcePoint" />
            <mxPoint x="670" y="288.5" as="targetPoint" />
          </mxGeometry>
        </mxCell>
        <mxCell id="TfQCIEfQzdd_NM2B3Fw8-52" value="" style="endArrow=none;html=1;rounded=0;entryX=0.5;entryY=0;entryDx=0;entryDy=0;exitX=1;exitY=0.5;exitDx=0;exitDy=0;" parent="1" source="TfQCIEfQzdd_NM2B3Fw8-8" target="TfQCIEfQzdd_NM2B3Fw8-100" edge="1">
          <mxGeometry width="50" height="50" relative="1" as="geometry">
            <mxPoint x="720" y="470" as="sourcePoint" />
            <mxPoint x="980" y="180" as="targetPoint" />
            <Array as="points">
              <mxPoint x="980" y="155" />
            </Array>
          </mxGeometry>
        </mxCell>
        <mxCell id="TfQCIEfQzdd_NM2B3Fw8-55" value="&lt;font style=&quot;font-size: 14px;&quot;&gt;n&lt;/font&gt;" style="text;html=1;align=center;verticalAlign=middle;resizable=0;points=[];autosize=1;strokeColor=none;fillColor=none;" parent="1" vertex="1">
          <mxGeometry x="570" y="465" width="30" height="30" as="geometry" />
        </mxCell>
        <mxCell id="TfQCIEfQzdd_NM2B3Fw8-56" value="&lt;font style=&quot;font-size: 14px;&quot;&gt;n&lt;/font&gt;" style="text;html=1;align=center;verticalAlign=middle;resizable=0;points=[];autosize=1;strokeColor=none;fillColor=none;" parent="1" vertex="1">
          <mxGeometry x="1110" y="298.5" width="30" height="30" as="geometry" />
        </mxCell>
        <mxCell id="TfQCIEfQzdd_NM2B3Fw8-57" value="&lt;font style=&quot;font-size: 14px;&quot;&gt;1&lt;/font&gt;" style="text;html=1;align=center;verticalAlign=middle;resizable=0;points=[];autosize=1;strokeColor=none;fillColor=none;" parent="1" vertex="1">
          <mxGeometry x="670" y="190" width="30" height="30" as="geometry" />
        </mxCell>
        <mxCell id="TfQCIEfQzdd_NM2B3Fw8-58" value="&lt;font style=&quot;font-size: 14px;&quot;&gt;1&lt;/font&gt;" style="text;html=1;align=center;verticalAlign=middle;resizable=0;points=[];autosize=1;strokeColor=none;fillColor=none;" parent="1" vertex="1">
          <mxGeometry x="740" y="130" width="30" height="30" as="geometry" />
        </mxCell>
        <mxCell id="TfQCIEfQzdd_NM2B3Fw8-59" value="&lt;font style=&quot;font-size: 14px;&quot;&gt;1&lt;/font&gt;" style="text;html=1;align=center;verticalAlign=middle;resizable=0;points=[];autosize=1;strokeColor=none;fillColor=none;" parent="1" vertex="1">
          <mxGeometry x="600" y="580" width="30" height="30" as="geometry" />
        </mxCell>
        <mxCell id="TfQCIEfQzdd_NM2B3Fw8-60" value="&lt;font style=&quot;font-size: 14px;&quot;&gt;n&lt;/font&gt;" style="text;html=1;align=center;verticalAlign=middle;resizable=0;points=[];autosize=1;strokeColor=none;fillColor=none;" parent="1" vertex="1">
          <mxGeometry x="880" y="708.97" width="30" height="30" as="geometry" />
        </mxCell>
        <mxCell id="TfQCIEfQzdd_NM2B3Fw8-62" value="&lt;u&gt;examID&lt;/u&gt;" style="ellipse;whiteSpace=wrap;html=1;fontSize=16;" parent="1" vertex="1">
          <mxGeometry x="25" y="150" width="120" height="60" as="geometry" />
        </mxCell>
        <mxCell id="TfQCIEfQzdd_NM2B3Fw8-63" value="exam_name" style="ellipse;whiteSpace=wrap;html=1;fontSize=16;" parent="1" vertex="1">
          <mxGeometry x="17.5" y="305" width="120" height="60" as="geometry" />
        </mxCell>
        <mxCell id="TfQCIEfQzdd_NM2B3Fw8-64" value="exam_content" style="ellipse;whiteSpace=wrap;html=1;fontSize=16;" parent="1" vertex="1">
          <mxGeometry x="17.5" y="400" width="120" height="60" as="geometry" />
        </mxCell>
        <mxCell id="TfQCIEfQzdd_NM2B3Fw8-65" value="solution_content" style="ellipse;whiteSpace=wrap;html=1;fontSize=16;" parent="1" vertex="1">
          <mxGeometry x="17.5" y="495" width="135" height="60" as="geometry" />
        </mxCell>
        <mxCell id="TfQCIEfQzdd_NM2B3Fw8-66" value="" style="endArrow=none;html=1;rounded=0;entryX=1;entryY=0.5;entryDx=0;entryDy=0;exitX=0.25;exitY=0;exitDx=0;exitDy=0;" parent="1" source="TfQCIEfQzdd_NM2B3Fw8-87" target="TfQCIEfQzdd_NM2B3Fw8-62" edge="1">
          <mxGeometry width="50" height="50" relative="1" as="geometry">
            <mxPoint x="285" y="300" as="sourcePoint" />
            <mxPoint x="850" y="420" as="targetPoint" />
            <Array as="points">
              <mxPoint x="285" y="180" />
            </Array>
          </mxGeometry>
        </mxCell>
        <mxCell id="TfQCIEfQzdd_NM2B3Fw8-67" value="" style="endArrow=none;html=1;rounded=0;entryX=1;entryY=0.5;entryDx=0;entryDy=0;exitX=0;exitY=0.5;exitDx=0;exitDy=0;" parent="1" source="TfQCIEfQzdd_NM2B3Fw8-87" target="TfQCIEfQzdd_NM2B3Fw8-63" edge="1">
          <mxGeometry width="50" height="50" relative="1" as="geometry">
            <mxPoint x="250" y="335" as="sourcePoint" />
            <mxPoint x="850" y="420" as="targetPoint" />
          </mxGeometry>
        </mxCell>
        <mxCell id="TfQCIEfQzdd_NM2B3Fw8-68" value="" style="endArrow=none;html=1;rounded=0;entryX=1;entryY=0.5;entryDx=0;entryDy=0;exitX=0;exitY=0.75;exitDx=0;exitDy=0;" parent="1" source="TfQCIEfQzdd_NM2B3Fw8-87" target="TfQCIEfQzdd_NM2B3Fw8-64" edge="1">
          <mxGeometry width="50" height="50" relative="1" as="geometry">
            <mxPoint x="250" y="352.5" as="sourcePoint" />
            <mxPoint x="850" y="420" as="targetPoint" />
            <Array as="points">
              <mxPoint x="200" y="353" />
              <mxPoint x="200" y="430" />
            </Array>
          </mxGeometry>
        </mxCell>
        <mxCell id="TfQCIEfQzdd_NM2B3Fw8-69" value="" style="endArrow=none;html=1;rounded=0;entryX=1;entryY=0.5;entryDx=0;entryDy=0;exitX=0.25;exitY=1;exitDx=0;exitDy=0;" parent="1" source="TfQCIEfQzdd_NM2B3Fw8-87" target="TfQCIEfQzdd_NM2B3Fw8-65" edge="1">
          <mxGeometry width="50" height="50" relative="1" as="geometry">
            <mxPoint x="285" y="370" as="sourcePoint" />
            <mxPoint x="850" y="420" as="targetPoint" />
            <Array as="points">
              <mxPoint x="285" y="525" />
            </Array>
          </mxGeometry>
        </mxCell>
        <mxCell id="TfQCIEfQzdd_NM2B3Fw8-70" value="" style="endArrow=none;html=1;rounded=0;entryX=1;entryY=0.5;entryDx=0;entryDy=0;exitX=0;exitY=0.25;exitDx=0;exitDy=0;" parent="1" source="TfQCIEfQzdd_NM2B3Fw8-87" target="TfQCIEfQzdd_NM2B3Fw8-71" edge="1">
          <mxGeometry width="50" height="50" relative="1" as="geometry">
            <mxPoint x="250" y="317.5" as="sourcePoint" />
            <mxPoint x="850" y="420" as="targetPoint" />
            <Array as="points">
              <mxPoint x="200" y="318" />
              <mxPoint x="200" y="259" />
            </Array>
          </mxGeometry>
        </mxCell>
        <mxCell id="TfQCIEfQzdd_NM2B3Fw8-71" value="&lt;b&gt;subjectID&lt;/b&gt;" style="ellipse;whiteSpace=wrap;html=1;fontSize=16;" parent="1" vertex="1">
          <mxGeometry x="25" y="228.5" width="120" height="60" as="geometry" />
        </mxCell>
        <mxCell id="TfQCIEfQzdd_NM2B3Fw8-72" value="&lt;b&gt;&lt;font style=&quot;font-size: 16px;&quot;&gt;&lt;span style=&quot;font-size: 16px;&quot;&gt;subjectID&lt;/span&gt;&lt;/font&gt;&lt;/b&gt;" style="ellipse;whiteSpace=wrap;html=1;fontSize=16;" parent="1" vertex="1">
          <mxGeometry x="1430" y="130" width="120" height="60" as="geometry" />
        </mxCell>
        <mxCell id="TfQCIEfQzdd_NM2B3Fw8-73" value="" style="endArrow=none;html=1;rounded=0;entryX=0;entryY=0.5;entryDx=0;entryDy=0;exitX=0.75;exitY=0;exitDx=0;exitDy=0;" parent="1" source="TfQCIEfQzdd_NM2B3Fw8-90" target="TfQCIEfQzdd_NM2B3Fw8-72" edge="1">
          <mxGeometry width="50" height="50" relative="1" as="geometry">
            <mxPoint x="1255" y="290" as="sourcePoint" />
            <mxPoint x="850" y="420" as="targetPoint" />
            <Array as="points">
              <mxPoint x="1255" y="160" />
            </Array>
          </mxGeometry>
        </mxCell>
        <mxCell id="TfQCIEfQzdd_NM2B3Fw8-74" value="&lt;b&gt;&lt;font style=&quot;font-size: 16px;&quot;&gt;&lt;span style=&quot;font-size: 16px;&quot;&gt;subjectID&lt;/span&gt;&lt;/font&gt;&lt;/b&gt;" style="ellipse;whiteSpace=wrap;html=1;fontSize=16;" parent="1" vertex="1">
          <mxGeometry x="320" y="600" width="120" height="60" as="geometry" />
        </mxCell>
        <mxCell id="TfQCIEfQzdd_NM2B3Fw8-75" value="" style="endArrow=none;html=1;rounded=0;entryX=1;entryY=0.5;entryDx=0;entryDy=0;exitX=0;exitY=0.5;exitDx=0;exitDy=0;" parent="1" source="TfQCIEfQzdd_NM2B3Fw8-89" target="TfQCIEfQzdd_NM2B3Fw8-19" edge="1">
          <mxGeometry width="50" height="50" relative="1" as="geometry">
            <mxPoint x="530" y="545" as="sourcePoint" />
            <mxPoint x="850" y="420" as="targetPoint" />
          </mxGeometry>
        </mxCell>
        <mxCell id="TfQCIEfQzdd_NM2B3Fw8-76" value="" style="endArrow=none;html=1;rounded=0;entryX=1;entryY=0.5;entryDx=0;entryDy=0;exitX=0;exitY=0.75;exitDx=0;exitDy=0;" parent="1" source="TfQCIEfQzdd_NM2B3Fw8-89" target="TfQCIEfQzdd_NM2B3Fw8-74" edge="1">
          <mxGeometry width="50" height="50" relative="1" as="geometry">
            <mxPoint x="530" y="562.5" as="sourcePoint" />
            <mxPoint x="850" y="420" as="targetPoint" />
            <Array as="points">
              <mxPoint x="490" y="563" />
              <mxPoint x="490" y="630" />
            </Array>
          </mxGeometry>
        </mxCell>
        <mxCell id="TfQCIEfQzdd_NM2B3Fw8-77" value="&lt;b&gt;answerID&lt;/b&gt;" style="ellipse;whiteSpace=wrap;html=1;fontSize=16;" parent="1" vertex="1">
          <mxGeometry x="930" y="840" width="120" height="60" as="geometry" />
        </mxCell>
        <mxCell id="TfQCIEfQzdd_NM2B3Fw8-78" value="" style="endArrow=none;html=1;rounded=0;entryX=0.5;entryY=1;entryDx=0;entryDy=0;exitX=0.5;exitY=0;exitDx=0;exitDy=0;" parent="1" source="TfQCIEfQzdd_NM2B3Fw8-77" target="TfQCIEfQzdd_NM2B3Fw8-93" edge="1">
          <mxGeometry width="50" height="50" relative="1" as="geometry">
            <mxPoint x="800" y="610" as="sourcePoint" />
            <mxPoint x="990" y="778.97" as="targetPoint" />
          </mxGeometry>
        </mxCell>
        <mxCell id="TfQCIEfQzdd_NM2B3Fw8-79" value="" style="endArrow=none;html=1;rounded=0;entryX=0.5;entryY=1;entryDx=0;entryDy=0;exitX=0.25;exitY=0;exitDx=0;exitDy=0;" parent="1" source="TfQCIEfQzdd_NM2B3Fw8-8" target="TfQCIEfQzdd_NM2B3Fw8-10" edge="1">
          <mxGeometry width="50" height="50" relative="1" as="geometry">
            <mxPoint x="800" y="460" as="sourcePoint" />
            <mxPoint x="850" y="410" as="targetPoint" />
            <Array as="points">
              <mxPoint x="635" y="100" />
              <mxPoint x="570" y="100" />
            </Array>
          </mxGeometry>
        </mxCell>
        <mxCell id="TfQCIEfQzdd_NM2B3Fw8-80" value="" style="endArrow=none;html=1;rounded=0;entryX=0.5;entryY=1;entryDx=0;entryDy=0;exitX=0.75;exitY=0;exitDx=0;exitDy=0;" parent="1" source="TfQCIEfQzdd_NM2B3Fw8-8" target="TfQCIEfQzdd_NM2B3Fw8-12" edge="1">
          <mxGeometry width="50" height="50" relative="1" as="geometry">
            <mxPoint x="800" y="460" as="sourcePoint" />
            <mxPoint x="850" y="410" as="targetPoint" />
            <Array as="points">
              <mxPoint x="705" y="100" />
              <mxPoint x="760" y="100" />
            </Array>
          </mxGeometry>
        </mxCell>
        <mxCell id="TfQCIEfQzdd_NM2B3Fw8-82" value="" style="endArrow=none;html=1;rounded=0;entryX=0.5;entryY=0;entryDx=0;entryDy=0;exitX=0;exitY=0.5;exitDx=0;exitDy=0;" parent="1" source="TfQCIEfQzdd_NM2B3Fw8-8" target="TfQCIEfQzdd_NM2B3Fw8-98" edge="1">
          <mxGeometry width="50" height="50" relative="1" as="geometry">
            <mxPoint x="650" y="450" as="sourcePoint" />
            <mxPoint x="450" y="190" as="targetPoint" />
            <Array as="points">
              <mxPoint x="450" y="155" />
            </Array>
          </mxGeometry>
        </mxCell>
        <mxCell id="TfQCIEfQzdd_NM2B3Fw8-84" value="&lt;font style=&quot;font-size: 14px;&quot;&gt;1&lt;/font&gt;" style="text;html=1;align=center;verticalAlign=middle;resizable=0;points=[];autosize=1;strokeColor=none;fillColor=none;" parent="1" vertex="1">
          <mxGeometry x="570" y="130" width="30" height="30" as="geometry" />
        </mxCell>
        <mxCell id="TfQCIEfQzdd_NM2B3Fw8-85" value="&lt;font style=&quot;font-size: 14px;&quot;&gt;n&lt;/font&gt;" style="text;html=1;align=center;verticalAlign=middle;resizable=0;points=[];autosize=1;strokeColor=none;fillColor=none;" parent="1" vertex="1">
          <mxGeometry x="390" y="308.5" width="30" height="30" as="geometry" />
        </mxCell>
        <mxCell id="TfQCIEfQzdd_NM2B3Fw8-86" value="" style="shape=link;html=1;rounded=0;width=5.294117647058824;entryX=0.5;entryY=0;entryDx=0;entryDy=0;exitX=0.5;exitY=1;exitDx=0;exitDy=0;" parent="1" source="TfQCIEfQzdd_NM2B3Fw8-99" target="TfQCIEfQzdd_NM2B3Fw8-89" edge="1">
          <mxGeometry width="100" relative="1" as="geometry">
            <mxPoint x="670" y="338.5" as="sourcePoint" />
            <mxPoint x="570" y="820" as="targetPoint" />
            <Array as="points">
              <mxPoint x="670" y="420" />
              <mxPoint x="600" y="420" />
            </Array>
          </mxGeometry>
        </mxCell>
        <mxCell id="TfQCIEfQzdd_NM2B3Fw8-87" value="&lt;font style=&quot;font-size: 16px;&quot;&gt;Exam&lt;/font&gt;" style="shape=ext;double=1;rounded=0;whiteSpace=wrap;html=1;" parent="1" vertex="1">
          <mxGeometry x="250" y="298.97" width="140" height="71.03" as="geometry" />
        </mxCell>
        <mxCell id="TfQCIEfQzdd_NM2B3Fw8-89" value="&lt;font style=&quot;font-size: 16px;&quot;&gt;Answer&lt;/font&gt;" style="shape=ext;double=1;rounded=0;whiteSpace=wrap;html=1;" parent="1" vertex="1">
          <mxGeometry x="530" y="508.97" width="140" height="71.03" as="geometry" />
        </mxCell>
        <mxCell id="TfQCIEfQzdd_NM2B3Fw8-90" value="&lt;font style=&quot;font-size: 16px;&quot;&gt;Question&lt;/font&gt;" style="shape=ext;double=1;rounded=0;whiteSpace=wrap;html=1;" parent="1" vertex="1">
          <mxGeometry x="1150" y="289.49" width="140" height="71.03" as="geometry" />
        </mxCell>
        <mxCell id="TfQCIEfQzdd_NM2B3Fw8-92" value="&lt;div style=&quot;font-size: 16px;&quot;&gt;&lt;font style=&quot;font-size: 16px;&quot;&gt;Multiple-Choice&lt;/font&gt;&lt;/div&gt;&lt;div style=&quot;font-size: 16px;&quot;&gt;&lt;font style=&quot;font-size: 16px;&quot;&gt;&lt;font style=&quot;font-size: 16px;&quot;&gt;Question&lt;/font&gt;&lt;font style=&quot;font-size: 16px;&quot;&gt;&lt;br&gt;&lt;/font&gt;&lt;/font&gt;&lt;/div&gt;" style="shape=ext;double=1;rounded=0;whiteSpace=wrap;html=1;" parent="1" vertex="1">
          <mxGeometry x="920" y="368.97" width="140" height="71.03" as="geometry" />
        </mxCell>
        <mxCell id="TfQCIEfQzdd_NM2B3Fw8-93" value="&lt;font style=&quot;font-size: 16px;&quot;&gt;Open Question&lt;/font&gt;" style="shape=ext;double=1;rounded=0;whiteSpace=wrap;html=1;" parent="1" vertex="1">
          <mxGeometry x="920" y="708.97" width="140" height="71.03" as="geometry" />
        </mxCell>
        <mxCell id="TfQCIEfQzdd_NM2B3Fw8-95" value="" style="shape=link;html=1;rounded=0;exitX=1;exitY=0.5;exitDx=0;exitDy=0;entryX=0.5;entryY=1;entryDx=0;entryDy=0;" parent="1" source="TfQCIEfQzdd_NM2B3Fw8-87" target="TfQCIEfQzdd_NM2B3Fw8-98" edge="1">
          <mxGeometry width="100" relative="1" as="geometry">
            <mxPoint x="440" y="324.51" as="sourcePoint" />
            <mxPoint x="450" y="240" as="targetPoint" />
            <Array as="points">
              <mxPoint x="450" y="334" />
            </Array>
          </mxGeometry>
        </mxCell>
        <mxCell id="TfQCIEfQzdd_NM2B3Fw8-96" value="" style="shape=link;html=1;rounded=0;exitX=0.5;exitY=1;exitDx=0;exitDy=0;entryX=0;entryY=0.5;entryDx=0;entryDy=0;" parent="1" source="TfQCIEfQzdd_NM2B3Fw8-100" target="TfQCIEfQzdd_NM2B3Fw8-90" edge="1">
          <mxGeometry width="100" relative="1" as="geometry">
            <mxPoint x="980" y="230" as="sourcePoint" />
            <mxPoint x="770" y="470" as="targetPoint" />
            <Array as="points">
              <mxPoint x="980" y="325" />
            </Array>
          </mxGeometry>
        </mxCell>
        <mxCell id="TfQCIEfQzdd_NM2B3Fw8-97" value="" style="shape=link;html=1;rounded=0;exitX=0.5;exitY=1;exitDx=0;exitDy=0;entryX=0;entryY=0.5;entryDx=0;entryDy=0;" parent="1" source="TfQCIEfQzdd_NM2B3Fw8-101" target="TfQCIEfQzdd_NM2B3Fw8-93" edge="1">
          <mxGeometry width="100" relative="1" as="geometry">
            <mxPoint x="600" y="700" as="sourcePoint" />
            <mxPoint x="770" y="500" as="targetPoint" />
            <Array as="points">
              <mxPoint x="600" y="744" />
            </Array>
          </mxGeometry>
        </mxCell>
        <mxCell id="TfQCIEfQzdd_NM2B3Fw8-98" value="&lt;font style=&quot;font-size: 16px;&quot;&gt;Contains&lt;/font&gt;" style="shape=rhombus;double=1;perimeter=rhombusPerimeter;whiteSpace=wrap;html=1;align=center;" parent="1" vertex="1">
          <mxGeometry x="390" y="180" width="120" height="60" as="geometry" />
        </mxCell>
        <mxCell id="TfQCIEfQzdd_NM2B3Fw8-99" value="&lt;font style=&quot;font-size: 16px;&quot;&gt;Contains&lt;/font&gt;" style="shape=rhombus;double=1;perimeter=rhombusPerimeter;whiteSpace=wrap;html=1;align=center;" parent="1" vertex="1">
          <mxGeometry x="610" y="278.5" width="120" height="60" as="geometry" />
        </mxCell>
        <mxCell id="TfQCIEfQzdd_NM2B3Fw8-100" value="&lt;font style=&quot;font-size: 16px;&quot;&gt;Contains&lt;/font&gt;" style="shape=rhombus;double=1;perimeter=rhombusPerimeter;whiteSpace=wrap;html=1;align=center;" parent="1" vertex="1">
          <mxGeometry x="920" y="180" width="120" height="60" as="geometry" />
        </mxCell>
        <mxCell id="TfQCIEfQzdd_NM2B3Fw8-101" value="&lt;font style=&quot;font-size: 16px;&quot;&gt;Contains&lt;/font&gt;" style="shape=rhombus;double=1;perimeter=rhombusPerimeter;whiteSpace=wrap;html=1;align=center;" parent="1" vertex="1">
          <mxGeometry x="540" y="640" width="120" height="60" as="geometry" />
        </mxCell>
        <mxCell id="TfQCIEfQzdd_NM2B3Fw8-102" value="&lt;b&gt;multi_questionID&lt;/b&gt;" style="ellipse;whiteSpace=wrap;html=1;fontSize=16;" parent="1" vertex="1">
          <mxGeometry x="915" y="455" width="150" height="60" as="geometry" />
        </mxCell>
        <mxCell id="TfQCIEfQzdd_NM2B3Fw8-103" value="&lt;b&gt;answerID&lt;/b&gt;" style="ellipse;whiteSpace=wrap;html=1;fontSize=16;" parent="1" vertex="1">
          <mxGeometry x="915" y="550" width="120" height="60" as="geometry" />
        </mxCell>
        <mxCell id="TfQCIEfQzdd_NM2B3Fw8-104" value="isCorrect" style="ellipse;whiteSpace=wrap;html=1;fontSize=16;" parent="1" vertex="1">
          <mxGeometry x="770" y="600" width="120" height="60" as="geometry" />
        </mxCell>
        <mxCell id="TfQCIEfQzdd_NM2B3Fw8-105" value="" style="endArrow=none;html=1;rounded=0;entryX=0.5;entryY=0;entryDx=0;entryDy=0;exitX=1;exitY=0.5;exitDx=0;exitDy=0;" parent="1" source="TfQCIEfQzdd_NM2B3Fw8-41" target="TfQCIEfQzdd_NM2B3Fw8-104" edge="1">
          <mxGeometry width="50" height="50" relative="1" as="geometry">
            <mxPoint x="650" y="540" as="sourcePoint" />
            <mxPoint x="700" y="490" as="targetPoint" />
            <Array as="points">
              <mxPoint x="850" y="560" />
              <mxPoint x="830" y="560" />
            </Array>
          </mxGeometry>
        </mxCell>
        <mxCell id="TfQCIEfQzdd_NM2B3Fw8-106" value="" style="endArrow=none;html=1;rounded=0;entryX=0;entryY=0.5;entryDx=0;entryDy=0;exitX=1;exitY=0.5;exitDx=0;exitDy=0;" parent="1" source="TfQCIEfQzdd_NM2B3Fw8-41" target="TfQCIEfQzdd_NM2B3Fw8-103" edge="1">
          <mxGeometry width="50" height="50" relative="1" as="geometry">
            <mxPoint x="650" y="540" as="sourcePoint" />
            <mxPoint x="700" y="490" as="targetPoint" />
            <Array as="points">
              <mxPoint x="880" y="485" />
              <mxPoint x="880" y="580" />
            </Array>
          </mxGeometry>
        </mxCell>
        <mxCell id="TfQCIEfQzdd_NM2B3Fw8-107" value="" style="endArrow=none;html=1;rounded=0;entryX=0;entryY=0.5;entryDx=0;entryDy=0;exitX=1;exitY=0.5;exitDx=0;exitDy=0;" parent="1" source="TfQCIEfQzdd_NM2B3Fw8-41" target="TfQCIEfQzdd_NM2B3Fw8-102" edge="1">
          <mxGeometry width="50" height="50" relative="1" as="geometry">
            <mxPoint x="650" y="540" as="sourcePoint" />
            <mxPoint x="700" y="490" as="targetPoint" />
          </mxGeometry>
        </mxCell>
      </root>
    </mxGraphModel>
  </diagram>
</mxfile>
